<?xml version="1.0" standalone="no"?>
<!DOCTYPE svg PUBLIC "-//W3C//DTD SVG 20010904//EN"
 "http://www.w3.org/TR/2001/REC-SVG-20010904/DTD/svg10.dtd">
<svg version="1.0" xmlns="http://www.w3.org/2000/svg"
 width="300.000000pt" height="300.000000pt" viewBox="0 0 300.000000 300.000000"
 preserveAspectRatio="xMidYMid meet">
<metadata>
Created by potrace 1.10, written by Peter Selinger 2001-2011
</metadata>
<g transform="translate(0.000000,300.000000) scale(0.100000,-0.100000)"
fill="#000000" stroke="none">
<path d="M1263 2799 c-428 -90 -783 -406 -936 -835 -55 -153 -72 -264 -72
-464 0 -157 3 -201 23 -289 113 -501 456 -870 931 -999 88 -24 112 -26 291
-26 179 0 203 2 291 26 185 50 328 123 477 244 226 181 392 459 458 764 24
108 27 427 5 535 -33 168 -121 383 -211 514 -191 282 -492 479 -814 536 -124
21 -326 19 -443 -6z m436 -20 c62 -11 122 -24 132 -29 10 -6 27 -10 38 -10 11
0 36 -9 56 -20 19 -11 35 -18 35 -15 0 2 39 -16 86 -41 154 -81 316 -219 424
-363 51 -68 116 -180 112 -193 -1 -5 3 -8 8 -8 6 0 10 -7 10 -15 0 -8 4 -23
10 -33 20 -37 50 -112 50 -127 0 -8 4 -23 9 -33 20 -38 42 -133 50 -217 9
-109 5 -343 -8 -405 -18 -88 -57 -232 -70 -259 -5 -9 -18 -36 -29 -61 -12 -25
-22 -48 -22 -52 0 -14 -74 -134 -125 -203 -70 -94 -200 -222 -282 -278 -60
-39 -201 -115 -258 -138 -209 -82 -468 -99 -709 -45 -16 4 -33 9 -38 12 -4 3
-18 7 -30 9 -57 11 -218 89 -314 152 -104 68 -249 211 -325 320 -27 39 -132
234 -139 258 -7 24 -13 42 -26 71 -7 17 -25 87 -40 155 -35 166 -38 349 -9
543 8 54 45 189 53 196 4 3 8 14 10 25 7 44 142 302 171 325 3 3 18 21 33 41
64 86 238 238 325 284 21 11 40 23 43 27 3 3 46 24 95 46 90 39 225 78 307 88
23 3 43 6 44 7 2 1 49 3 105 4 69 2 142 -4 218 -18z"/>
<path d="M1275 2419 c-54 -31 -163 -173 -176 -228 -10 -45 16 -110 57 -138 69
-47 148 -66 285 -67 91 -1 99 1 138 29 53 36 74 76 74 140 1 87 -51 153 -177
226 -77 45 -162 61 -201 38z m172 -49 c81 -42 144 -96 169 -142 20 -39 18
-117 -5 -154 -33 -54 -78 -67 -205 -61 -134 6 -203 26 -251 71 -68 65 -42 149
84 269 75 72 98 73 208 17z"/>
<path d="M1889 2156 c-19 -13 -55 -49 -79 -80 -51 -67 -64 -136 -33 -171 61
-69 248 -109 336 -71 36 15 79 58 84 84 20 96 -33 172 -161 233 -74 35 -101
36 -147 5z m136 -24 c134 -67 183 -149 140 -231 -20 -39 -67 -56 -150 -55
-139 2 -235 51 -235 118 0 33 12 54 70 125 59 72 98 82 175 43z"/>
<path d="M1179 1959 c-97 -7 -153 -24 -193 -61 -11 -10 -23 -18 -28 -18 -22 0
-120 -117 -165 -200 -44 -79 -98 -220 -126 -330 -19 -73 -25 -123 -26 -220 -2
-145 20 -236 88 -375 38 -76 111 -165 135 -165 30 1 34 18 34 155 1 157 10
265 23 265 5 0 6 -6 3 -13 -2 -7 5 -22 17 -33 21 -19 21 -19 45 11 89 110 138
138 249 142 63 2 95 -3 152 -22 136 -45 311 -49 425 -9 133 47 285 209 351
374 43 107 18 89 -39 -29 -73 -150 -159 -243 -282 -304 l-85 -42 -136 1 c-123
0 -144 3 -216 28 -181 64 -322 27 -424 -113 l-33 -46 6 50 c22 179 138 340
269 376 61 17 173 13 324 -10 72 -12 160 -21 195 -21 135 0 277 57 378 150 58
54 63 82 6 32 -153 -134 -279 -172 -491 -149 -153 17 -175 20 -175 28 0 4 17
5 38 1 49 -9 318 -9 357 0 176 41 321 156 402 319 24 48 25 51 8 69 -19 21
-22 21 -130 1 -141 -27 -323 -5 -525 61 -69 23 -129 43 -135 44 -5 2 -41 12
-80 23 -38 12 -80 21 -92 21 -12 0 -23 3 -25 8 -1 4 -46 4 -99 1z m124 -33
c42 -8 140 -36 219 -61 270 -87 319 -98 458 -98 72 0 157 7 200 16 41 8 77 14
78 12 2 -2 -13 -36 -35 -77 -76 -146 -215 -249 -383 -284 -92 -20 -279 -14
-389 11 -113 26 -240 18 -315 -20 -105 -53 -185 -170 -226 -330 -27 -104 -44
-288 -38 -404 l5 -96 -48 54 c-54 58 -120 184 -144 276 -48 183 -19 417 83
653 101 235 243 357 419 361 23 1 75 -5 116 -13z m132 -504 c16 -9 0 -11 -80
-10 -107 1 -125 -2 -194 -33 -93 -43 -187 -175 -213 -300 -7 -33 -16 -59 -20
-59 -12 0 -10 12 13 97 45 165 132 267 264 311 40 13 205 9 230 -6z"/>
<path d="M1149 907 c-22 -16 -45 -193 -28 -213 25 -31 61 -12 74 38 5 19 14
27 37 30 28 5 30 3 24 -25 -7 -33 7 -57 34 -57 24 0 42 25 49 68 4 24 12 38
24 40 16 3 18 -3 15 -44 -3 -42 0 -49 22 -60 20 -11 27 -11 41 2 14 12 20 12
48 -2 33 -16 80 -12 92 8 5 7 15 5 30 -5 21 -15 25 -15 40 -1 14 13 20 13 38
2 17 -10 25 -10 41 0 17 10 25 10 43 -3 26 -18 88 -20 105 -3 9 9 15 10 20 2
8 -14 91 -17 111 -5 9 6 21 5 32 -2 25 -16 58 16 65 65 4 21 10 38 15 38 20 0
25 2 42 17 23 22 21 40 -7 58 -19 13 -32 14 -67 6 -28 -6 -48 -6 -54 0 -5 5
-30 9 -55 9 -37 0 -47 4 -55 23 -7 14 -19 22 -35 22 -16 0 -28 -8 -35 -22 -6
-14 -19 -23 -31 -23 -11 0 -29 -9 -39 -20 -17 -19 -18 -19 -43 0 -29 23 -88
26 -116 5 -16 -12 -21 -12 -40 0 -26 19 -57 19 -82 0 -28 -21 -35 -18 -22 9 8
20 7 28 -5 40 -28 29 -77 14 -77 -23 0 -13 -10 -15 -49 -13 -40 3 -51 8 -60
28 -9 21 -17 24 -68 24 -32 0 -65 -6 -74 -13z m129 -24 c-2 -14 -14 -18 -43
-19 -33 0 -41 -4 -43 -22 -3 -19 1 -22 32 -22 39 0 39 0 30 -24 -4 -10 -18
-16 -40 -16 -32 0 -34 -2 -40 -40 -5 -33 -11 -40 -29 -40 -21 0 -21 1 -9 63 6
34 15 79 18 100 l7 37 60 0 c52 0 60 -2 57 -17z m192 13 c0 -18 -15 -36 -31
-36 -18 0 -26 20 -12 33 7 8 43 10 43 3z m436 -18 c-3 -13 -11 -57 -17 -100
l-12 -76 -36 -5 c-65 -8 -88 19 -71 84 12 45 49 74 80 64 17 -5 20 -2 20 24 0
25 4 31 21 31 17 0 20 -4 15 -22z m-518 -40 c10 -8 8 -13 -5 -23 -12 -9 -22
-10 -30 -4 -15 13 -28 -11 -38 -68 -5 -34 -11 -43 -27 -43 -14 0 -18 5 -14 18
3 9 8 40 12 67 3 28 8 53 10 57 6 10 78 7 92 -4z m60 -46 c-5 -26 -11 -57 -14
-69 -3 -14 -12 -23 -23 -23 -17 0 -18 5 -11 38 4 20 11 53 14 73 5 30 10 36
25 32 16 -4 17 -10 9 -51z m130 46 c7 -7 12 -27 12 -45 0 -32 -1 -33 -40 -33
-30 0 -40 -4 -40 -16 0 -13 7 -15 30 -11 32 7 51 -10 29 -24 -25 -16 -78 -10
-88 10 -34 62 50 166 97 119z m155 -9 c6 -9 7 -39 3 -72 -6 -48 -11 -57 -27
-57 -17 0 -19 5 -14 38 4 20 9 45 12 55 4 15 0 18 -19 15 -19 -2 -24 -11 -32
-55 -7 -43 -13 -53 -28 -53 -16 0 -19 5 -15 23 3 12 9 45 13 73 l6 51 46 -1
c29 -1 48 -7 55 -17z m297 3 c0 -8 -16 -34 -36 -58 l-36 -44 32 0 c21 0 30 -4
28 -12 -5 -15 -118 -24 -118 -10 0 5 18 30 41 56 l41 46 -31 0 c-19 0 -31 5
-31 13 0 20 4 22 59 22 36 0 51 -4 51 -13z m114 12 c19 -7 21 -34 4 -35 -7 -1
-22 -2 -33 -3 -16 -1 -22 -11 -29 -53 -6 -38 -13 -53 -28 -56 -18 -5 -19 -2
-14 26 3 18 8 51 12 74 6 38 10 42 38 46 17 2 32 5 33 5 1 1 8 -1 17 -4z
m-214 -58 c0 -3 -4 -8 -10 -11 -5 -3 -10 -1 -10 4 0 6 5 11 10 11 6 0 10 -2
10 -4z m91 -29 c-10 -9 -11 -8 -5 6 3 10 9 15 12 12 3 -3 0 -11 -7 -18z"/>
<path d="M1810 791 c-17 -32 -12 -61 9 -61 21 0 31 19 31 56 0 29 -25 32 -40
5z"/>
<path d="M1533 813 c-20 -7 -15 -23 7 -23 11 0 20 4 20 9 0 13 -12 19 -27 14z"/>
</g>
</svg>
